<?xml version="1.0" standalone="no"?><!DOCTYPE svg PUBLIC "-//W3C//DTD SVG 1.1//EN" "http://www.w3.org/Graphics/SVG/1.1/DTD/svg11.dtd"><svg t="1709109774040" class="icon" viewBox="0 0 1024 1024" version="1.1" xmlns="http://www.w3.org/2000/svg" p-id="5375" xmlns:xlink="http://www.w3.org/1999/xlink" width="70" height="70"><path d="M527.36 387.584c-9.728 0-18.432 8.704-18.432 18.432V552.96h83.456V406.016c0-9.728-9.216-18.432-18.432-18.432H527.36z m92.672-59.392c-9.728 0-18.432 8.704-18.432 18.432v199.68h73.216v2.048l10.24-0.512V346.624c0-9.728-8.704-18.432-18.432-18.432h-46.592z" fill="#ffffff" p-id="5376"></path><path d="M393.728 802.304l-1.024-1.536c-12.8-18.944-18.944-31.232-18.944-49.664v-5.12H113.152v-42.496H378.88l1.536-4.608c6.144-18.432 12.8-37.376 25.088-49.664l1.536-1.536v-13.824H113.152v-455.68h774.656v390.656l2.048 1.536c10.24 7.168 16.896 10.24 25.6 14.848 8.192 4.096 17.92 9.216 33.792 18.432l7.68 4.608v-435.2c0-37.888-23.552-64.512-57.856-64.512h-791.04c-28.672 0-57.856 21.504-57.856 57.856v591.872c0 29.184 28.672 57.856 57.856 57.856l285.696-0.512v-13.312z" fill="#ffffff" p-id="5377"></path><path d="M499.712 547.84V280.064c0-9.728-8.704-18.432-18.432-18.432H435.2c-9.728 0-18.432 8.704-18.432 18.432v265.728h72.704v2.048h10.24z m-92.672 5.12V346.624c0-9.728-8.704-18.432-18.432-18.432h-48.64l-16.384 16.384v201.728h72.704v6.656h10.752z m11.264 293.376l-1.536-1.024h-80.896c-15.872 0-31.744 15.872-31.744 31.744 0 14.336 12.288 28.16 26.624 31.232v6.656H519.68v-15.36l-3.584-1.024c-33.28-11.264-65.536-28.16-97.792-52.224z m462.848-218.112c-54.784-33.792-123.392-53.76-187.904-53.76-66.56 0-133.632 18.944-187.904 53.76-53.248 33.792-81.92 74.24-81.92 116.736s29.184 83.968 81.92 116.736c54.784 33.792 123.392 53.76 187.904 53.76 66.56 0 133.632-18.944 187.904-53.76 53.248-33.792 81.92-74.24 81.92-116.736s-29.184-83.968-81.92-116.736z m32.256 117.248c0 8.192-3.072 13.824-7.168 20.992-1.536 2.56-3.072 5.632-5.12 9.216-12.8 12.8-26.112 26.112-45.056 38.912-13.312 8.704-39.936 24.576-70.656 32.768-5.12 1.024-10.24 2.048-14.848 3.072-26.112 5.632-49.152 10.24-76.8 10.24-16.384 0-31.232-1.536-45.568-3.072-14.336-1.536-29.696-3.072-46.08-3.584-22.528-6.144-48.64-17.92-70.656-32.256-19.456-12.8-31.744-25.6-45.056-38.912-5.632-11.264-12.288-25.088-12.288-30.208 0-8.192 3.072-13.824 7.168-20.992 1.536-2.56 3.072-5.632 5.12-9.216 12.8-12.8 26.112-26.112 45.056-38.912 13.312-8.704 39.936-24.576 70.656-32.768 5.12-1.024 10.24-2.048 14.848-3.072 26.112-5.632 49.152-10.24 76.8-10.24 12.288 0 26.112 1.536 40.448 3.072 16.384 1.536 33.792 3.584 51.2 3.584 22.528 6.144 48.64 17.92 70.656 32.256 19.456 12.8 32.256 26.112 45.056 38.912 5.632 11.264 12.288 25.088 12.288 30.208z" fill="#ffffff" p-id="5378"></path><path d="M693.248 673.792c-44.032 0-71.168 36.864-71.168 71.168s27.136 71.168 71.168 71.168c34.304 0 71.168-27.136 71.168-71.168 0-34.304-27.136-71.168-71.168-71.168z" fill="#ffffff" p-id="5379"></path></svg>