<?xml version="1.0" standalone="no"?><!DOCTYPE svg PUBLIC "-//W3C//DTD SVG 1.1//EN" "http://www.w3.org/Graphics/SVG/1.1/DTD/svg11.dtd"><svg t="1706282146575" class="icon" viewBox="0 0 1024 1024" version="1.1" xmlns="http://www.w3.org/2000/svg" p-id="3450" xmlns:xlink="http://www.w3.org/1999/xlink" width="70" height="70"><path d="M552.96 0a40.96 40.96 0 0 1 40.96 40.96v81.92a40.96 40.96 0 0 1-40.96 40.96h-61.44v61.44h40.96a163.90144 163.90144 0 0 1 151.92064 102.4H983.04a40.96 40.96 0 0 1 40.96 40.96v532.48a40.96 40.96 0 0 1-40.96 40.96H696.32v40.96a40.96 40.96 0 0 1-40.96 40.96H40.96a40.96 40.96 0 0 1-40.96-40.96V389.12a163.84 163.84 0 0 1 163.84-163.84h40.96V163.84H143.36a40.96 40.96 0 0 1-40.96-40.96V40.96a40.96 40.96 0 0 1 40.96-40.96h409.6z m430.08 368.64H573.44v532.48h409.6V368.64z m-450.56 81.92H122.88a40.96 40.96 0 0 0-40.8576 37.888L81.92 491.52v286.72a40.96 40.96 0 0 0 37.888 40.8576L122.88 819.2h409.6V450.56z m225.28 286.72a20.48 20.48 0 0 1 0 40.96h-122.88a20.48 20.48 0 0 1 0-40.96h122.88zM348.16 532.48a20.48 20.48 0 0 1 20.48 20.48v61.44h61.44a20.48 20.48 0 0 1 0 40.96h-61.44v61.44a20.48 20.48 0 0 1-40.96 0v-61.44h-61.44a20.48 20.48 0 0 1 0-40.96h61.44v-61.44a20.48 20.48 0 0 1 20.48-20.48z m573.44 81.92a20.48 20.48 0 0 1 0 40.96H634.88a20.48 20.48 0 0 1 0-40.96h286.72z m0-122.88a20.48 20.48 0 0 1 0 40.96H634.88a20.48 20.48 0 0 1 0-40.96h286.72z" fill="#ffffff" p-id="3451"></path></svg>