<?xml version="1.0" standalone="no"?><!DOCTYPE svg PUBLIC "-//W3C//DTD SVG 1.1//EN" "http://www.w3.org/Graphics/SVG/1.1/DTD/svg11.dtd"><svg t="1706282158735" class="icon" viewBox="0 0 1024 1024" version="1.1" xmlns="http://www.w3.org/2000/svg" p-id="3648" xmlns:xlink="http://www.w3.org/1999/xlink" width="70" height="70"><path d="M1012.963 371.329L882.756 241.107c-7.255-7.24-18.828-7.24-26.053 0L726.496 371.329a18.296 18.296 0 0 0 0 26.038L856.703 527.59c3.447 3.447 8.125 5.396 13.102 5.396 4.917 0 9.504-1.949 13.071-5.396l130.207-130.223a18.378 18.378 0 0 0 5.396-12.967c-0.119-4.931-2.068-9.638-5.516-13.071z m-49.798 195.85H778.904c-10.194 0-18.469 8.26-18.469 18.483v184.143c0 10.208 8.274 18.363 18.469 18.363h184.262c10.224 0 18.349-8.26 18.349-18.363V585.662c-0.001-10.224-8.126-18.483-18.35-18.483z m-294.741 0H484.251c-10.193 0-18.468 8.26-18.468 18.483v184.143c0 10.208 8.275 18.363 18.468 18.363h184.173c10.224 0 18.468-8.26 18.468-18.363V585.662c0-10.224-8.244-18.483-18.468-18.483z m0-294.637H484.251c-10.193 0-18.468 8.26-18.468 18.469v194.936c0 10.208 8.275 18.468 18.468 18.468h184.173c10.224 0 18.468-8.26 18.468-18.468V290.891c0-10.089-8.244-18.349-18.468-18.349z m-331.438 76.841c-79.27-44.371-180.604-18.048-226.385 58.793l-82.838 139.14c-45.78 76.841-18.618 175.089 60.622 219.46 79.269 44.357 180.634 18.033 226.415-58.808l82.837-139.126c45.78-76.84 18.618-175.103-60.651-219.459z m22.785 198.249l-47.07 79.029L108.322 512.27l47.04-79.03c32.619-54.715 104.753-73.453 161.207-41.868 56.423 31.584 75.761 101.544 43.202 156.26z" fill="#ffffff" p-id="3649"></path></svg>