<?xml version="1.0" standalone="no"?><!DOCTYPE svg PUBLIC "-//W3C//DTD SVG 1.1//EN" "http://www.w3.org/Graphics/SVG/1.1/DTD/svg11.dtd"><svg t="1706192898106" class="icon" viewBox="0 0 1024 1024" version="1.1" xmlns="http://www.w3.org/2000/svg" p-id="5011" xmlns:xlink="http://www.w3.org/1999/xlink" width="70" height="70"><path d="M517.354406 935.282192a296.930527 296.930527 0 0 0 395.118214 21.556434L704.2599 748.376699zM680.4606 678.598648l23.176282-23.176281L885.309021 473.50102l69.155033-69.155033A236.746959 236.746959 0 0 0 619.404806 69.411342l-548.256115 548.256115a236.746959 236.746959 0 1 0 335.183852 335.059248L423.652452 935.157589l256.808148-256.558941zM394.619799 392.633243l274.128057-274.128058a167.467322 167.467322 0 1 1 236.746959 236.746959l-274.128058 274.128057-236.746958-236.746958M958.949786 910.610667h-0.124604 0.124604zM937.393352 515.118643l-186.905493 186.905493L959.4482 910.610667a297.428942 297.428942 0 0 0-22.054848-395.492024z" fill="#ffffff" p-id="5012"></path></svg>