<?xml version="1.0" standalone="no"?><!DOCTYPE svg PUBLIC "-//W3C//DTD SVG 1.1//EN" "http://www.w3.org/Graphics/SVG/1.1/DTD/svg11.dtd"><svg t="1708854943290" class="icon" viewBox="0 0 1024 1024" version="1.1" xmlns="http://www.w3.org/2000/svg" p-id="3690" xmlns:xlink="http://www.w3.org/1999/xlink" width="70" height="70"><path d="M810.048 578.112a107.584 107.584 0 0 0 107.584-107.584V241.312a107.584 107.584 0 1 0-215.168 0v229.248a107.584 107.584 0 0 0 107.584 107.552zM738.464 247.072a71.584 71.584 0 1 1 143.168 0v108.832h-143.2V247.072zM245.664 358.112c-7.136 0-12.512-1.28-16.064-3.84a21.824 21.824 0 0 1-7.68-9.184 30.752 30.752 0 0 1-3.072-13.792V280.8c0-9.696 1.92-16.96 5.76-21.824 3.84-4.832 8.032-8.544 12.64-11.104 5.632-2.56 11.744-3.84 18.4-3.84h296.288c6.656 0 12.768 1.28 18.368 3.84 4.608 2.56 8.8 6.24 12.64 11.104 3.84 4.864 5.728 12.128 5.728 21.824v50.528c0 5.12-1.024 9.696-3.072 13.792a22.816 22.816 0 0 1-7.264 9.184c-3.328 2.56-8.544 3.84-15.712 3.84H245.664z m398.88 427.232c0 11.232-2.016 21.44-6.112 30.624a59.52 59.52 0 0 1-16.48 20.672c-7.392 6.112-17.984 9.184-31.776 9.184H218.112c-14.304 0-25.024-3.072-32.16-9.184s-12.512-13.024-16.064-20.672a83.904 83.904 0 0 1-6.88-30.624v-286.336c0-16.832 3.072-28.832 9.184-35.968 6.112-7.168 11.744-13.28 16.832-18.368l54.336-50.528h331.52l43.648 50.528c5.12 5.12 10.72 11.232 16.832 18.368 6.112 7.136 9.184 19.136 9.184 35.968v286.336z m-119.424-197.536h-80.384v-81.152h-81.92v81.152H282.432v81.92h80.384v80.416h81.92v-80.416h80.384v-81.92z m0 0" fill="#ffffff" p-id="3691"></path></svg>