<?xml version="1.0" standalone="no"?><!DOCTYPE svg PUBLIC "-//W3C//DTD SVG 1.1//EN" "http://www.w3.org/Graphics/SVG/1.1/DTD/svg11.dtd"><svg t="1708854519816" class="icon" viewBox="0 0 1024 1024" version="1.1" xmlns="http://www.w3.org/2000/svg" p-id="1483" xmlns:xlink="http://www.w3.org/1999/xlink" width="70" height="70"><path d="M405.333333 512a42.666667 42.666667 0 0 1 42.666667-42.666667h128a42.666667 42.666667 0 0 1 42.666667 42.666667v384a42.666667 42.666667 0 0 1-42.666667 42.666667h-128a42.666667 42.666667 0 0 1-42.666667-42.666667v-384z m85.333334 42.666667v298.666666h42.666666v-298.666666h-42.666666zM469.333333 106.666667a42.666667 42.666667 0 0 0 0 85.333333h25.258667L384 305.962667 328.832 250.88a42.666667 42.666667 0 0 0-60.330667 0L110.336 409.002667A42.666667 42.666667 0 0 0 170.666667 469.333333l128-128 55.168 55.168a42.666667 42.666667 0 0 0 60.330666 0L554.666667 252.544V277.333333a42.666667 42.666667 0 1 0 85.333333 0v-128a42.666667 42.666667 0 0 0-42.666667-42.666666h-128z" p-id="1484"></path><path d="M810.666667 384v469.333333h-42.666667V384h42.666667z m-128 469.333333V349.866667q0-21.205333 15.018666-36.181334Q712.661333 298.666667 733.866667 298.666667h110.933333q21.205333 0 36.181333 15.018666 15.018667 14.976 15.018667 36.181334V853.333333h42.666667v85.333334H85.333333v-85.333334h42.666667v-162.133333q0-21.205333 14.976-36.224Q157.994667 640 179.2 640h110.933333q21.205333 0 36.224 14.976 14.976 15.018667 14.976 36.224V853.333333h341.333334zM256 853.333333v-128H213.333333v128h42.666667z" p-id="1485"></path></svg>