<?xml version="1.0" standalone="no"?><!DOCTYPE svg PUBLIC "-//W3C//DTD SVG 1.1//EN" "http://www.w3.org/Graphics/SVG/1.1/DTD/svg11.dtd"><svg t="1708855040171" class="icon" viewBox="0 0 1024 1024" version="1.1" xmlns="http://www.w3.org/2000/svg" p-id="1475" xmlns:xlink="http://www.w3.org/1999/xlink" width="70" height="70"><path d="M725.586 276.865c-1.256-37.479-17.481-74.735-45.709-99.76-54.62-48.449-142.037-47.193-194.264 4.46-17.938 17.709-35.537 35.536-53.364 53.364l-95.419 95.419c-19.998 19.998-40.107 39.996-60.105 60.105-19.769 19.886-34.51 45.481-39.538 73.25-6.628 37.139 0.23 77.134 22.967 107.991 24.109 32.909 58.738 53.593 99.19 58.621 38.283 4.798 75.99-7.885 105.702-31.771 7.198-5.827 13.71-12.683 20.226-19.312l199.175-199.175c26.855-27.083 42.395-64.798 41.139-103.192zM305.064 544.492c-0.117-0.229-0.229-0.341-0.457-0.57 1.026 1.256 2.399 3.427 0.457 0.57z m367.957-261.338c0 1.824-0.113 3.654-0.23 5.484 0 0.57-0.229 2.511-0.34 3.995-0.229 1.033-0.34 2.517-0.457 3.087-0.34 1.83-0.798 3.542-1.144 5.372a92.172 92.172 0 0 1-3.425 11.31c-0.117 0.346-0.687 1.718-1.027 2.745-0.457 1.027-1.033 2.288-1.261 2.628a117.505 117.505 0 0 1-5.942 10.512c-1.027 1.601-2.054 3.203-3.197 4.8-0.347 0.457-0.576 0.803-0.916 1.26-2.517 2.97-5.028 5.826-7.772 8.683l-45.822 45.826-91.764 91.758-67.302 67.308-4.915 4.911-0.798 0.803c-1.373 1.373-2.857 2.74-4.23 4.001-0.797 0.797-4.341 3.425-5.027 4.112-0.23 0.111-0.458 0.34-0.687 0.457-1.601 1.027-3.197 2.171-4.798 3.085a109.247 109.247 0 0 1-11.316 6.171c-0.34 0.23-0.798 0.341-1.144 0.57-1.484 0.568-2.857 1.144-4.341 1.601-3.772 1.256-7.538 2.4-11.427 3.197-1.824 0.458-3.542 0.804-5.368 1.144-0.574 0.111-1.373 0.111-2.058 0.229-3.427 0.341-6.969 0.57-10.4 0.57-3.655 0-7.311-0.111-10.97-0.459h-0.457c-1.714-0.568-3.995-0.568-5.714-0.908a147.103 147.103 0 0 1-10.625-2.745 50.869 50.869 0 0 1-5.942-2.06c-0.457-0.111-0.804-0.34-1.261-0.451-6.969-3.314-13.368-7.203-19.652-11.544-0.229-0.229-0.569-0.457-0.797-0.687-1.718-1.484-3.315-2.857-5.034-4.458a121.255 121.255 0 0 1-7.538-7.883c-0.687-0.798-2.517-3.884-3.544-4.341-0.117-0.229-0.346-0.458-0.457-0.687-2.287-3.314-4.458-6.739-6.399-10.283-1.027-1.83-1.943-3.772-2.857-5.714-0.111-0.34-0.341-0.686-0.458-1.027-1.256-3.431-2.51-6.974-3.542-10.512-1.027-3.544-1.824-7.086-2.511-10.746-0.117-0.57-0.117-1.138-0.229-1.714-0.117-1.713-0.346-3.542-0.457-5.368-0.23-3.66-0.23-7.315-0.117-10.969l0.346-5.485c0-0.457 0.111-0.916 0.111-1.373 1.49-7.655 3.203-14.97 5.942-22.286 0.117-0.229 0.117-0.34 0.229-0.457 0.804-1.596 1.484-3.314 2.4-4.909 1.83-3.544 3.89-7.086 6.171-10.402 0.916-1.484 1.943-2.857 2.974-4.23 0.229-0.34 0.57-0.686 0.798-0.914 2.17-2.628 4.458-5.028 6.858-7.426l209.921-209.921c0.797-0.799 1.596-1.597 2.398-2.283 1.367-1.261 2.74-2.517 4.112-3.66 0.457-0.341 0.916-0.681 1.256-1.027 0.117 0 0.117-0.111 0.229-0.111 6.059-4.118 12.114-7.545 18.625-10.747l1.033-0.34c1.713-0.57 3.425-1.256 5.139-1.713a102.047 102.047 0 0 1 12.002-3.085c1.596-0.347 3.314-0.576 4.909-0.916h0.347c3.882-0.34 7.655-0.57 11.539-0.57 3.66 0 7.203 0.113 10.857 0.459 2.06 0.229 8.912 1.596 0.687-0.117 2.053 0.457 4.112 0.686 6.054 1.027 3.544 0.686 7.086 1.601 10.512 2.627a45.123 45.123 0 0 1 5.145 1.718c0.568 0.23 3.197 1.256 4.23 1.597 0.686 0.346 1.373 0.574 1.596 0.803 1.83 0.916 3.661 1.825 5.491 2.857 3.425 1.943 6.741 4.001 9.826 6.171 0.34 0.23 0.569 0.459 0.797 0.57 1.255 1.027 2.517 2.058 3.661 3.085 2.628 2.4 5.139 4.798 7.538 7.426a88.508 88.508 0 0 1 4.23 4.917c0.111 0.228 0.34 0.457 0.57 0.686a97.325 97.325 0 0 1 6.516 10.283c1.824 3.315 3.197 6.741 5.028 10.055l-0.916-1.83c0.34 0.687 0.798 1.601 0.916 2.177 0.797 2.281 1.601 4.452 2.281 6.739 1.033 3.544 1.948 7.086 2.628 10.742 0.117 0.569 0.346 2.287 0.574 3.425 0.113 1.144 0.23 2.288 0.23 2.857-0.121 3.203-0.004 6.857-0.121 10.518z m0 0" p-id="1476" fill="#ffffff"></path><path d="M380.653 323.685l37.172-37.173 161.601 161.606-37.166 37.172-161.607-161.605z m225.405-89.444c-19.881-3.085-38.623-1.026-56.908 7.545-10.172 4.687-18.971 12.113-26.856 19.998l-22.626 22.626c-9.715 9.713-10.512 27.541 0 37.139 10.513 9.596 26.744 10.4 37.139 0l25.143-25.143c1.027-0.916 1.941-1.941 2.968-2.857 0.229-0.229 0.346-0.34 0.574-0.457 1.138-0.687 2.4-1.714 3.544-2.4a42.327 42.327 0 0 1 4.452-2.4c0.117 0 0.229-0.111 0.346-0.111 1.824-0.457 8.342-2.517 9.14-2.628h0.346c1.026 0 3.537-0.229 3.765-0.346h4.917c1.713 0.117 8.231 1.144 0.686-0.111 6.969 1.027 13.258 1.027 19.652-2.517 5.714-3.197 11.087-9.713 12.46-16.225 2.857-12.801-4.112-29.942-18.742-32.113z m0 0" p-id="1477" fill="#ffffff"></path><path d="M889.909 878.741V273.44c0-14.971 1.033-29.372-6.968-43.081-3.655-6.289-9.258-11.316-14.397-16.455L711.302 56.661c-13.14-13.14-26.28-26.397-39.537-39.539-10.172-9.942-22.626-15.427-36.91-15.538H201.532c-20.343 0-40.453-1.256-55.992 15.427-12.113 13.024-13.257 28.222-13.257 44.566v910.751c0.111 14.061 4.915 27.658 15.428 37.367 10.283 9.603 23.312 13.376 37.022 13.376h508.515c13.714 0 26.973-12.114 26.286-26.287-0.686-14.284-11.544-26.28-26.286-26.28H181.305c-3.425 0.111 0.341-1.373 2.4 0.457-0.457-0.117-1.027-0.229-1.484-0.346-2.628-0.916-1.941-0.569 2.17 1.033-0.457-0.23-0.914-0.458-1.254-0.687-2.288-1.49-1.72-1.031 1.713 1.484l-2.06-2.058a207.36 207.36 0 0 1 2.288 2.974c-0.229-0.457-0.574-0.804-0.804-1.256-1.254-2.405-1.026-1.718 0.804 2.283-0.117-0.458-0.346-0.916-0.457-1.484-0.576-2.745-0.576-1.943 0.229 2.51 1.027-3.425-0.117-1.026 0-1.596V50.607c-0.229-4.112 0.914 1.027-0.459 2.4-0.117 0.111 0.916-2.745 0.798-2.857-0.457 1.143-1.027 2.398-1.484 3.542 0.457-0.916 0.916-1.713 1.484-2.517-2.74 3.315-3.197 4.001-1.373 1.943 2.06-1.825 1.373-1.367-1.941 1.373 0.229 0 5.602-2.74 0.803-0.687-4.915 2.06 1.027 0.117 1.138 0-1.484 1.373-6.511 0.229-2.283 0.457h442.462c3.89 0 7.662-0.111 11.544 0h0.57l1.83 0.117-3.425-0.346c2.74 0.804 2.281 0.576-1.261-0.797 5.144 2.628-3.655-4.23 0.574 0.111l180.667 180.666 18.965 18.972 4.458 4.458 0.686 0.68c4.342 4.118-2.515-4.681 0.113 0.458-0.458-1.027-0.798-1.943-1.255-2.97 0.686 2.857 0.686 2.288 0.117-1.713-1.373 5.368 0.111 1.144 0.111 1.825-0.798 26.971 0 54.05 0 81.022v542.222c0 13.714 12.113 26.973 26.28 26.286 13.944-0.8 25.94-11.77 25.94-26.511z m0 0" p-id="1478" fill="#ffffff"></path><path d="M748.212 742.416H373.857c-12.571 0-22.855-10.283-22.855-22.855v-6.858c0-12.57 10.283-22.855 22.855-22.855h374.355c12.571 0 22.855 10.285 22.855 22.855v6.858c0 12.683-10.283 22.855-22.855 22.855z m-473.887 0h-6.856c-12.571 0-22.855-10.283-22.855-22.855v-6.858c0-12.57 10.283-22.855 22.855-22.855h6.856c12.566 0 22.855 10.285 22.855 22.855v6.858a22.778 22.778 0 0 1-22.855 22.855z m0 114.73h-6.856c-12.571 0-22.855-10.289-22.855-22.855v-6.856c0-12.571 10.283-22.855 22.855-22.855h6.856c12.566 0 22.855 10.283 22.855 22.855v6.856c0 12.566-10.172 22.855-22.855 22.855z m473.887 0H373.857c-12.571 0-22.855-10.289-22.855-22.855v-6.856c0-12.571 10.283-22.855 22.855-22.855h374.355c12.571 0 22.855 10.283 22.855 22.855v6.856c0 12.566-10.283 22.855-22.855 22.855z m0-229.349H609.94c-12.564 0-22.855-10.283-22.855-22.855v-6.858c0-12.566 10.29-22.855 22.855-22.855h138.272c12.571 0 22.855 10.289 22.855 22.855v6.858c0 12.572-10.283 22.855-22.855 22.855z m0 0" p-id="1479" fill="#ffffff"></path></svg>