<?xml version="1.0" standalone="no"?><!DOCTYPE svg PUBLIC "-//W3C//DTD SVG 1.1//EN" "http://www.w3.org/Graphics/SVG/1.1/DTD/svg11.dtd"><svg t="1709109701447" class="icon" viewBox="0 0 1024 1024" version="1.1" xmlns="http://www.w3.org/2000/svg" p-id="3326" xmlns:xlink="http://www.w3.org/1999/xlink" width="70" height="70"><path d="M384 460.8a25.6 25.6 0 0 0-25.6 25.6V512c0 14.1312 11.4688 25.6 25.6 25.6h256A25.6 25.6 0 0 0 665.6 512v-25.6a25.6 25.6 0 0 0-25.6-25.6h-256zM102.4 358.4h819.2v614.4a51.2 51.2 0 0 1-51.2 51.2H153.6a51.2 51.2 0 0 1-51.2-51.2v-614.4zM51.2 0h921.6a51.2 51.2 0 0 1 51.2 51.2v204.8a51.2 51.2 0 0 1-51.2 51.2H51.2A51.2 51.2 0 0 1 0 256v-204.8A51.2 51.2 0 0 1 51.2 0z" fill="#ffffff" p-id="3327"></path></svg>